<svg xmlns="http://www.w3.org/2000/svg" width="512" height="512" viewBox="0 0 512 512">
  <!-- Background -->
  <rect width="512" height="512" rx="50" fill="#2b2b2b" />
  
  <!-- Rust-inspired gear -->
  <path d="M256 76c-99.4 0-180 80.6-180 180s80.6 180 180 180 180-80.6 180-180-80.6-180-180-180zm0 30c82.7 0 150 67.3 150 150s-67.3 150-150 150-150-67.3-150-150 67.3-150 150-150z" fill="#d16969" />
  
  <!-- Gear teeth -->
  <g fill="#d16969">
    <rect x="246" y="36" width="20" height="40" rx="5" />
    <rect x="246" y="436" width="20" height="40" rx="5" />
    <rect x="36" y="246" width="40" height="20" rx="5" />
    <rect x="436" y="246" width="40" height="20" rx="5" />
    
    <!-- Diagonal teeth -->
    <rect x="101" y="101" width="40" height="20" rx="5" transform="rotate(45 121 111)" />
    <rect x="371" y="101" width="40" height="20" rx="5" transform="rotate(135 391 111)" />
    <rect x="101" y="371" width="40" height="20" rx="5" transform="rotate(-45 121 381)" />
    <rect x="371" y="371" width="40" height="20" rx="5" transform="rotate(-135 391 381)" />
  </g>
  
  <!-- SR Letters -->
  <text x="256" y="276" font-family="Arial, sans-serif" font-size="120" font-weight="bold" text-anchor="middle" fill="#ffffff">SR</text>
  
  <!-- Emoji-style decorative element -->
  <g transform="translate(340, 175) scale(0.6)">
    <path d="M50,20 C25,20 5,40 5,65 C5,90 25,110 50,110 C75,110 95,90 95,65 C95,40 75,20 50,20 Z" fill="#885a38" />
    <path d="M30,50 C35,45 45,45 50,50 M50,50 C55,45 65,45 70,50 M30,80 C40,90 60,90 70,80" stroke="#ffffff" stroke-width="5" stroke-linecap="round" fill="none" />
  </g>
</svg> 